<?xml version="1.0" encoding="UTF-8"?>
<svg xmlns="http://www.w3.org/2000/svg" width="720" height="160" viewBox="0 0 720 160"><style>.a{stroke-width:3;stroke:#F92672;}</style><title>  TryCodingItsFunWebOptimized</title><desc>  Created with Sketch.</desc><defs><path d="M83.5 37L93.4 37 99.7 75.9 111.6 37 124.7 37 107.2 91.2C104.3 100.2 99.1 104.7 91.8 104.7 91.3 104.7 90.6 104.7 89.7 104.7L87 104.6C86 104.5 85.2 104.5 84.5 104.4 83.7 104.3 83.1 104.3 82.8 104.2L83.8 92.9C85.4 93.1 87 93.2 88.7 93.2 91.4 93.2 93.1 91.7 94 88.8L94.5 87 91.1 87 82.4 49.6 82.3 50.3C80.8 49.9 79.4 49.7 78 49.7 75.1 49.7 72.8 51 70.9 53.5 69 56 67.9 59.3 67.6 63.4L65.6 87 52.3 87 56.6 37 67.4 37 68 43.3C69.4 41.1 71 39.4 72.9 38.1 74.7 36.7 76.8 36.1 79.1 36.1 80.2 36.1 81 36.1 81.7 36.2 82.4 36.3 83 36.4 83.5 36.5L83.5 37ZM44.1 48.5L42.3 70C42.2 70.9 42.2 71.6 42.2 72.1 42.1 72.5 42.1 72.8 42.1 72.9 42.1 75.3 43.4 76.5 45.9 76.5 47 76.5 48.1 76.4 49.3 76.2 50.5 76 51.5 75.8 52.2 75.6L51.3 86.7 49.6 87.1C48.7 87.2 47.8 87.3 46.8 87.5 45.8 87.6 44.8 87.6 43.7 87.8 42.6 87.9 41.6 87.9 40.7 87.9 38.3 87.9 36.3 87.6 34.8 87.1 33.3 86.6 32 85.8 31.1 84.8 30.2 83.7 29.5 82.5 29.2 81 28.8 79.4 28.6 77.7 28.6 75.8 28.6 75.1 28.6 74.4 28.7 73.7 28.7 73 28.7 72.2 28.8 71.5L30.8 48.5 24.3 48.5 25.3 37 31.8 37 32.9 25 46.2 25 45.1 37 55.1 37 54.1 48.5 44.1 48.5ZM171.2 86.4C169.5 86.9 167.6 87.2 165.5 87.5 163.4 87.8 161.4 87.9 159.6 87.9 156.9 87.9 154.4 87.7 152.2 87.2 149.9 86.6 148 85.7 146.4 84.2 144.8 82.7 143.6 80.7 142.7 78.1 141.8 75.4 141.4 72 141.4 67.7 141.4 62 141.9 57.1 142.8 53.1 143.7 49.1 145.1 45.8 147 43.3 148.9 40.8 151.2 38.9 154.1 37.8 157 36.7 160.3 36.1 164.2 36.1 165.9 36.1 167.8 36.2 170 36.6 172.2 36.9 174 37.2 175.5 37.5L174.5 49.2C173.6 49 172.7 48.8 172 48.7 171.3 48.5 170.5 48.3 169.7 48.2 168.9 48.1 168 48 167.1 47.9 166.2 47.8 165.1 47.8 163.8 47.8 162.7 47.8 161.6 48 160.7 48.4 159.8 48.8 159 49.5 158.3 50.7 157.5 51.8 157 53.3 156.5 55.3 155.9 57.2 155.5 59.8 155.2 63 155.1 63.7 155.1 64.4 155.1 65.1 155 65.7 155 66.3 155 66.9 155 70.4 155.5 72.9 156.6 74.2 157.6 75.5 159.1 76.2 161.1 76.2 163.6 76.2 165.7 76 167.5 75.7 169.2 75.4 170.7 75.1 172.2 74.8L171.2 86.4ZM216.9 56.5C216.9 57.2 216.9 58 216.9 58.7 216.8 59.4 216.8 60.2 216.7 61 216.2 66.3 215.5 70.6 214.4 74.1 213.2 77.5 211.7 80.2 209.8 82.3 207.9 84.3 205.5 85.7 202.7 86.5 199.9 87.3 196.6 87.7 192.8 87.7 189.7 87.7 186.9 87.4 184.5 86.8 182.1 86.1 180.1 85 178.4 83.4 176.7 81.8 175.5 79.7 174.7 77 173.8 74.2 173.4 70.9 173.4 66.8 173.4 61.5 173.8 57 174.7 53.2 175.6 49.3 177 46.2 178.9 43.7 180.8 41.1 183.3 39.3 186.4 38.1 189.4 36.9 193 36.3 197.3 36.3 203.8 36.3 208.7 37.9 212 41.2 215.3 44.4 216.9 49.5 216.9 56.5ZM203 62.5C203.2 60.4 203.3 58.5 203.3 57 203.3 53.3 202.8 50.7 201.7 49.3 200.5 47.8 198.8 47.1 196.3 47.1 194.8 47.1 193.6 47.3 192.5 47.9 191.4 48.4 190.6 49.2 189.9 50.4 189.1 51.6 188.6 53.2 188.2 55.2 187.8 57.1 187.5 59.6 187.2 62.5 187 64.7 186.9 66.6 186.9 68.2 186.9 71.5 187.4 73.8 188.4 75.1 189.4 76.3 191.2 76.9 193.7 76.9 195.2 76.9 196.5 76.7 197.6 76.2 198.7 75.7 199.6 75 200.3 73.9 201 72.7 201.6 71.3 202 69.5 202.4 67.6 202.7 65.3 203 62.5ZM218.5 62.8C218.9 57.9 219.7 53.7 220.9 50.3 222 46.9 223.6 44.2 225.8 42.1 227.9 39.9 230.4 38.4 233.5 37.5 236.6 36.6 240.2 36.1 244.5 36.1 245.2 36.1 245.9 36.1 246.6 36.2 247.2 36.2 247.8 36.2 248.5 36.3L250.2 17 263.5 17 257.4 87 246.6 87 246 81.3C244.3 83.4 242.3 85 240.1 86.2 237.8 87.3 235.2 87.9 232.3 87.9 227.2 87.9 223.6 86.6 221.4 84 219.2 81.3 218.1 76.9 218.1 70.6 218.1 69.5 218.1 68.2 218.2 66.9 218.3 65.5 218.4 64.1 218.5 62.8ZM236.8 76.5C238.3 76.5 239.6 76.1 240.7 75.3 241.8 74.4 242.8 73.4 243.6 72.1 244.3 70.8 244.9 69.5 245.4 68 245.8 66.5 246 65.2 246.1 64L247.5 47.8C246.6 47.7 245.8 47.6 245 47.6 244.1 47.5 243.3 47.5 242.6 47.5 241.1 47.5 239.7 47.8 238.4 48.4 237.1 48.9 235.9 50 234.9 51.6 233.9 53.1 233.1 55.3 232.6 58.1 232 60.9 231.7 64.5 231.7 69 231.7 72.1 232.1 74.1 232.9 75.1 233.7 76 235 76.5 236.8 76.5ZM267 28.5L268 17 282.3 17 281.3 28.5 267 28.5ZM262.4 87L266.7 37 280 37 275.7 87 262.4 87ZM280.7 87L285 37 295.8 37 296.3 42.3C298 40.4 299.9 38.9 302.2 37.8 304.4 36.7 307 36.1 309.9 36.1 315 36.1 318.5 37.3 320.5 39.8 322.5 42.2 323.5 46 323.5 51.2 323.5 52.5 323.4 54.5 323.2 57L320.6 87 307.3 87 309.9 57.3C310 56.8 310 56.1 310.1 55.4 310.1 54.7 310.1 54 310.1 53.4 310.1 51.1 309.7 49.5 308.9 48.8 308 48 306.8 47.6 305.2 47.6 303.8 47.6 302.6 48 301.5 48.9 300.4 49.8 299.5 50.8 298.8 52.1 298.1 53.3 297.5 54.6 297.1 56.1 296.7 57.6 296.4 58.9 296.3 60.1L294 87 280.7 87ZM364.9 85C364.6 89 363.9 92.3 363 95.1 362 97.8 360.7 99.9 359 101.6 357.2 103.3 355.1 104.4 352.6 105.2 350.1 105.9 347.1 106.2 343.7 106.2 342.4 106.2 341.1 106.2 339.7 106.1 338.3 105.9 336.9 105.8 335.6 105.7 334.2 105.5 332.9 105.3 331.7 105.1 330.4 104.9 329.3 104.7 328.4 104.5L329.4 93.7C331.6 94.2 333.7 94.6 335.7 94.9 337.7 95.2 339.9 95.4 342.2 95.4 345.5 95.4 347.9 94.7 349.2 93.3 350.5 91.8 351.3 89.4 351.6 86L351.9 82.1C350.3 83.6 348.5 84.8 346.5 85.7 344.5 86.5 342.2 86.9 339.7 86.9 334.8 86.9 331.3 85.6 329 83 326.7 80.4 325.6 75.9 325.6 69.5 325.6 63.1 326.1 57.8 327.2 53.5 328.3 49.2 329.9 45.8 332 43.3 334.1 40.7 336.9 38.9 340.2 37.8 343.5 36.6 347.4 36.1 351.9 36.1 355 36.1 357.9 36.3 360.7 36.8 363.4 37.2 366.1 37.8 369 38.5L364.9 85ZM344.2 75.5C345.5 75.5 346.7 75.2 347.9 74.5 349 73.8 349.9 73 350.7 72 351.5 70.9 352.1 69.8 352.6 68.5 353.1 67.2 353.3 66 353.4 64.8L354.8 47.8C354 47.7 353.2 47.6 352.4 47.6 351.5 47.5 350.7 47.5 350 47.5 348.5 47.5 347.1 47.7 345.8 48.3 344.5 48.8 343.3 49.7 342.3 51.3 341.3 52.8 340.5 54.9 340 57.6 339.4 60.3 339.1 63.9 339.1 68.3 339.1 71.2 339.5 73.2 340.3 74.1 341.1 75 342.4 75.5 344.2 75.5ZM372.7 102L363 102 368.3 87 369.4 74 384.4 74 383.3 87 372.7 102ZM411.4 28.5L412.4 17 426.7 17 425.7 28.5 411.4 28.5ZM406.8 87L411.1 37 424.4 37 420.1 87 406.8 87ZM443.7 48.5L441.9 70C441.8 70.9 441.8 71.6 441.8 72.1 441.7 72.5 441.7 72.8 441.7 72.9 441.7 75.3 443 76.5 445.5 76.5 446.6 76.5 447.7 76.4 448.9 76.2 450.1 76 451.1 75.8 451.8 75.6L450.9 86.7 449.2 87.1C448.3 87.2 447.4 87.3 446.4 87.5 445.4 87.6 444.4 87.6 443.3 87.8 442.2 87.9 441.2 87.9 440.3 87.9 437.9 87.9 435.9 87.6 434.4 87.1 432.9 86.6 431.6 85.8 430.7 84.8 429.8 83.7 429.1 82.5 428.8 81 428.4 79.4 428.2 77.7 428.2 75.8 428.2 75.1 428.2 74.4 428.3 73.7 428.3 73 428.3 72.2 428.4 71.5L430.4 48.5 423.9 48.5 424.9 37 431.4 37 432.5 25 445.8 25 444.7 37 454.7 37 453.7 48.5 443.7 48.5ZM551.9 37L564.1 37 561.6 66.3C561.5 67.2 561.5 68.1 561.4 69 561.3 69.8 561.3 70.4 561.3 70.8 561.3 73.1 561.7 74.6 562.5 75.4 563.3 76.1 564.5 76.4 566 76.4 567.4 76.4 568.6 76 569.7 75.1 570.7 74.2 571.5 73.2 572.3 72 573 70.7 573.5 69.4 573.9 67.9 574.2 66.4 574.4 65.1 574.5 63.9L576.8 37 590.1 37 585.8 87 575 87 574.5 82C572.9 83.7 571 85.1 568.9 86.3 566.7 87.4 564.2 87.9 561.3 87.9 556.3 87.9 552.8 86.6 550.9 84.1 548.9 81.6 547.9 77.7 547.9 72.6 547.9 71.9 547.9 71.1 548 70.3 548 69.5 548 68.6 548.1 67.7L549.8 48.3 540.1 48.3 536.6 88.3C536.3 91.6 535.8 94.3 535.1 96.5 534.3 98.6 533.2 100.2 531.8 101.5 530.4 102.7 528.7 103.5 526.6 104 524.5 104.5 522.1 104.7 519.3 104.7 517.8 104.7 516.3 104.7 515 104.6 513.6 104.4 512.2 104.3 510.9 104.2L511.9 92.9C512.8 93 513.8 93.1 515.1 93.2 516.4 93.3 517.4 93.3 518.1 93.3 519.9 93.3 521.2 93 521.9 92.4 522.6 91.7 523.1 90.5 523.2 88.8L526.7 48.3 520.2 48.3 521.2 37 527.7 37 528.1 33C528.4 29.6 529 26.8 529.8 24.6 530.6 22.4 531.6 20.7 533 19.4 534.3 18.1 535.9 17.3 537.8 16.8 539.7 16.3 542 16.1 544.7 16.1 546.8 16.1 548.9 16.2 551 16.6 553.1 16.9 554.6 17.1 555.5 17.3L554.6 28.6C553.5 28.3 552.3 28.1 551 27.9 549.6 27.6 548 27.5 546.2 27.5 544.5 27.5 543.4 27.9 542.7 28.8 542 29.6 541.6 30.7 541.5 32.1L541.1 37 550.8 37 549.8 48.3 550.9 48.3 551.9 37ZM464.6 43.7L456.1 43.7 454.5 28 455.5 17 470 17 469 28 464.6 43.7ZM499.8 69.5C499.8 73.2 499.3 76.2 498.2 78.6 497.1 80.9 495.7 82.8 493.8 84.2 491.8 85.6 489.6 86.6 486.9 87.1 484.2 87.6 481.3 87.9 478.2 87.9 476.9 87.9 475.6 87.9 474.3 87.8 473 87.6 471.7 87.5 470.5 87.4 469.3 87.2 468.2 87 467.2 86.9 466.1 86.7 465.3 86.5 464.6 86.3L465.6 75C466.9 75.3 468.6 75.7 470.8 76.1 472.9 76.5 475.1 76.7 477.4 76.7 480 76.7 482.1 76.4 483.7 75.7 485.2 74.9 486 73.5 486 71.4 486 70.1 485.6 69.2 484.8 68.6 483.9 68 482.4 67.5 480.1 67 475.4 66.1 472.1 64.4 470.2 62.1 468.2 59.7 467.3 56.9 467.3 53.7 467.3 47.2 469.1 42.7 472.8 40.1 476.4 37.4 481.8 36.1 489.1 36.1 490.2 36.1 491.3 36.1 492.5 36.3 493.7 36.4 494.8 36.5 496 36.7 497.1 36.8 498 37 499 37.2 499.9 37.3 500.5 37.5 501 37.6L500 49C498.5 48.5 496.8 48.1 495 47.8 493.2 47.5 490.9 47.3 488.2 47.3 485.6 47.3 483.8 47.7 482.7 48.4 481.5 49.1 481 50.3 481 52 481 53.1 481.5 53.9 482.6 54.4 483.6 54.8 485.1 55.2 487.1 55.7 492 56.8 495.3 58.5 497.1 60.9 498.9 63.2 499.8 66.1 499.8 69.5ZM590.8 87L595.1 37 605.9 37 606.4 42.3C608.1 40.4 610 38.9 612.3 37.8 614.5 36.7 617.1 36.1 620 36.1 625.1 36.1 628.6 37.3 630.6 39.8 632.6 42.2 633.6 46 633.6 51.2 633.6 52.5 633.5 54.5 633.3 57L630.7 87 617.4 87 620 57.3C620.1 56.8 620.1 56.1 620.2 55.4 620.2 54.7 620.2 54 620.2 53.4 620.2 51.1 619.8 49.5 619 48.8 618.1 48 616.9 47.6 615.3 47.6 613.9 47.6 612.7 48 611.6 48.9 610.5 49.8 609.6 50.8 608.9 52.1 608.2 53.3 607.6 54.6 607.2 56.1 606.8 57.6 606.5 58.9 606.4 60.1L604.1 87 590.8 87Z" id="path-1"/></defs><g id="TryCodingItsFunWebOptimized" fill="none"><rect id="side" y="10" width="720" height="150" rx="25" style="fill-opacity:0.8;fill:#FED154"/><rect id="top" width="720" height="150" rx="25" fill="#474843"/><g id="oops" transform="translate(35 23)"><path d="M513.5 98.5L631.5 98.5" id="fun-underline" class="a"/><path d="M464.5 98.5L492.5 98.5" id="s-underline" class="a"/><text id="apostrophe" font-family="Share-BoldItalic, Share" font-size="100" letter-spacing="-8" style="fill:#FFF7AF;font-style:italic;font-weight:bold"><tspan y="88">  &#39;</tspan></text><mask id="mask-2" fill="white"><use xlink:href="#path-1"/></mask><use id="try-coding,-it's-fun" xlink:href="#path-1" fill="#FFF7AF"/><polygon id="accent" mask="url(#mask-2)" points="468.5 39.5 462.5 58 460.5 96 485.5 109.5 646.5 109.5 649.5 17 524.5 7.5" style="fill-opacity:0.9;fill:#FFF"/></g></g></svg>
