<?xml version="1.0" encoding="UTF-8"?>
<svg width="720px" height="160px" viewBox="0 0 720 160" version="1.1" xmlns="http://www.w3.org/2000/svg" xmlns:xlink="http://www.w3.org/1999/xlink">
    <!-- Generator: Sketch 50.2 (55047) - http://www.bohemiancoding.com/sketch -->
    <title>TrySodaItsFun</title>
    <desc>Created with Sketch.</desc>
    <defs>
        <rect id="path-1" x="50" y="50" width="720" height="150" rx="25"></rect>
        <filter x="-0.7%" y="-3.3%" width="101.4%" height="113.3%" filterUnits="objectBoundingBox" id="filter-2">
            <feOffset dx="0" dy="10" in="SourceAlpha" result="shadowOffsetOuter1"></feOffset>
            <feComposite in="shadowOffsetOuter1" in2="SourceAlpha" operator="out" result="shadowOffsetOuter1"></feComposite>
            <feColorMatrix values="0 0 0 0 0.461598242   0 0 0 0 0.726863151   0 0 0 0 0.777609481  0 0 0 0.5 0" type="matrix" in="shadowOffsetOuter1"></feColorMatrix>
        </filter>
        <path d="M83.4565217,37 L93.4,37 L99.7,75.9 L111.6,37 L124.7,37 L107.2,91.2 C104.266652,100.200045 99.13337,104.7 91.8,104.7 C91.266664,104.7 90.5500045,104.683334 89.65,104.65 L86.95,104.55 C86.0499955,104.516667 85.2166705,104.466667 84.45,104.4 C83.6833295,104.333333 83.133335,104.266667 82.8,104.2 L83.8,92.9 C85.400008,93.100001 87.033325,93.2 88.7,93.2 C91.36668,93.2 93.133329,91.733348 94,88.8 L94.5,87 L91.1,87 L82.3574912,49.6388513 L82.3,50.3 C80.833326,49.899998 79.400007,49.7 78,49.7 C75.133319,49.7 72.766676,50.966654 70.9,53.5 C69.033324,56.033346 67.933335,59.333313 67.6,63.4 L65.6,87 L52.3,87 L56.6,37 L67.4,37 L68,43.3 C69.400007,41.099989 71.0166575,39.3500065 72.85,38.05 C74.6833425,36.7499935 76.766655,36.1 79.1,36.1 C80.166672,36.1 81.03333,36.133333 81.7,36.2 C82.36667,36.266667 82.966664,36.366666 83.5,36.5 L83.4565217,37 Z M44.1,48.5 L42.3,70 C42.233333,70.933338 42.1833335,71.6166645 42.15,72.05 C42.1166665,72.4833355 42.1,72.766666 42.1,72.9 C42.1,75.300012 43.366654,76.5 45.9,76.5 C46.966672,76.5 48.099994,76.400001 49.3,76.2 C50.500006,75.999999 51.466663,75.800001 52.2,75.6 L51.3,86.7 L49.55,87.05 C48.7166625,87.2166675 47.800005,87.3499995 46.8,87.45 C45.799995,87.5500005 44.766672,87.6499995 43.7,87.75 C42.633328,87.8500005 41.633338,87.9 40.7,87.9 C38.299988,87.9 36.333341,87.633336 34.8,87.1 C33.266659,86.566664 32.033338,85.7833385 31.1,84.75 C30.166662,83.7166615 29.5166685,82.4500075 29.15,80.95 C28.7833315,79.4499925 28.6,77.733343 28.6,75.8 C28.6,75.13333 28.6166665,74.433337 28.65,73.7 C28.6833335,72.966663 28.733333,72.233337 28.8,71.5 L30.8,48.5 L24.3,48.5 L25.3,37 L31.8,37 L32.9,25 L46.2,25 L45.1,37 L55.1,37 L54.1,48.5 L44.1,48.5 Z M171.2,86.4 C169.533325,86.866669 167.633344,87.233332 165.5,87.5 C163.366656,87.766668 161.400009,87.9 159.6,87.9 C156.866653,87.9 154.383345,87.6500025 152.15,87.15 C149.916655,86.6499975 148.000008,85.666674 146.4,84.2 C144.799992,82.733326 143.566671,80.6833465 142.7,78.05 C141.833329,75.4166535 141.4,71.966688 141.4,67.7 C141.4,61.966638 141.866662,57.10002 142.8,53.1 C143.733338,49.09998 145.133324,45.833346 147,43.3 C148.866676,40.766654 151.233319,38.933339 154.1,37.8 C156.966681,36.666661 160.333314,36.1 164.2,36.1 C165.866675,36.1 167.799989,36.2499985 170,36.55 C172.200011,36.8500015 174.033326,37.166665 175.5,37.5 L174.5,49.2 C173.566662,48.999999 172.733337,48.8166675 172,48.65 C171.266663,48.4833325 170.500004,48.333334 169.7,48.2 C168.899996,48.066666 168.033338,47.966667 167.1,47.9 C166.166662,47.833333 165.066673,47.8 163.8,47.8 C162.666661,47.8 161.633338,47.999998 160.7,48.4 C159.766662,48.800002 158.950004,49.5499945 158.25,50.65 C157.549997,51.7500055 156.950003,53.2833235 156.45,55.25 C155.949998,57.2166765 155.533335,59.799984 155.2,63 C155.133333,63.733337 155.083334,64.4166635 155.05,65.05 C155.016667,65.6833365 155,66.299997 155,66.9 C155,70.433351 155.516662,72.86666 156.55,74.2 C157.583339,75.53334 159.09999,76.2 161.1,76.2 C163.633346,76.2 165.749992,76.033335 167.45,75.7 C169.150009,75.366665 170.733326,75.066668 172.2,74.8 L171.2,86.4 Z M216.9,56.5 C216.9,57.233337 216.883334,57.966663 216.85,58.7 C216.816667,59.433337 216.766667,60.199996 216.7,61 C216.233331,66.266693 215.450006,70.6166495 214.35,74.05 C213.249994,77.4833505 211.733343,80.2166565 209.8,82.25 C207.866657,84.2833435 205.500014,85.699996 202.7,86.5 C199.899986,87.300004 196.600019,87.7 192.8,87.7 C189.666651,87.7 186.900012,87.3833365 184.5,86.75 C182.099988,86.1166635 180.066675,85.000008 178.4,83.4 C176.733325,81.799992 175.483338,79.6500135 174.65,76.95 C173.816663,74.2499865 173.4,70.866687 173.4,66.8 C173.4,61.533307 173.833329,56.9833525 174.7,53.15 C175.566671,49.3166475 176.966657,46.1500125 178.9,43.65 C180.833343,41.1499875 183.316652,39.300006 186.35,38.1 C189.383349,36.899994 193.033312,36.3 197.3,36.3 C203.833366,36.3 208.733317,37.9166505 212,41.15 C215.266683,44.3833495 216.9,49.499965 216.9,56.5 Z M203,62.5 C203.200001,60.366656 203.3,58.533341 203.3,57 C203.3,53.266648 202.750006,50.6833405 201.65,49.25 C200.549995,47.8166595 198.766679,47.1 196.3,47.1 C194.833326,47.1 193.566672,47.3499975 192.5,47.85 C191.433328,48.3500025 190.550004,49.199994 189.85,50.4 C189.149997,51.600006 188.600002,53.1833235 188.2,55.15 C187.799998,57.1166765 187.466668,59.566652 187.2,62.5 C186.999999,64.700011 186.9,66.599992 186.9,68.2 C186.9,71.53335 187.399995,73.8166605 188.4,75.05 C189.400005,76.2833395 191.166654,76.9 193.7,76.9 C195.233341,76.9 196.533328,76.666669 197.6,76.2 C198.666672,75.733331 199.566663,74.9500055 200.3,73.85 C201.033337,72.7499945 201.599998,71.2833425 202,69.45 C202.400002,67.6166575 202.733332,65.300014 203,62.5 Z M218.5,62.8 C218.900002,57.866642 219.683328,53.700017 220.85,50.3 C222.016673,46.899983 223.64999,44.1500105 225.75,42.05 C227.850011,39.9499895 230.433318,38.433338 233.5,37.5 C236.566682,36.566662 240.233312,36.1 244.5,36.1 C245.233337,36.1 245.916664,36.1166665 246.55,36.15 C247.183336,36.1833335 247.83333,36.233333 248.5,36.3 L250.2,17 L263.5,17 L257.4,87 L246.6,87 L246,81.3 C244.266658,83.366677 242.283345,84.9833275 240.05,86.15 C237.816656,87.3166725 235.233348,87.9 232.3,87.9 C227.233308,87.9 223.600011,86.5833465 221.4,83.95 C219.199989,81.3166535 218.1,76.866698 218.1,70.6 C218.1,69.466661 218.133333,68.2166735 218.2,66.85 C218.266667,65.4833265 218.366666,64.13334 218.5,62.8 Z M236.8,76.5 C238.266674,76.5 239.566661,76.0833375 240.7,75.25 C241.833339,74.4166625 242.78333,73.366673 243.55,72.1 C244.31667,70.833327 244.916664,69.466674 245.35,68 C245.783335,66.533326 246.033333,65.200006 246.1,64 L247.5,47.8 C246.633329,47.666666 245.783337,47.5833335 244.95,47.55 C244.116663,47.5166665 243.333337,47.5 242.6,47.5 C241.133326,47.5 239.73334,47.7833305 238.4,48.35 C237.06666,48.9166695 235.900005,49.9833255 234.9,51.55 C233.899995,53.1166745 233.116669,55.299986 232.55,58.1 C231.98333,60.900014 231.7,64.533311 231.7,69 C231.7,72.066682 232.099996,74.0833285 232.9,75.05 C233.700004,76.0166715 234.999991,76.5 236.8,76.5 Z M267,28.5 L268,17 L282.3,17 L281.3,28.5 L267,28.5 Z M262.4,87 L266.7,37 L280,37 L275.7,87 L262.4,87 Z M280.7,87 L285,37 L295.8,37 L296.3,42.3 C297.966675,40.433324 299.916655,38.933339 302.15,37.8 C304.383344,36.666661 306.966652,36.1 309.9,36.1 C314.966692,36.1 318.49999,37.3166545 320.5,39.75 C322.50001,42.1833455 323.5,45.999974 323.5,51.2 C323.5,52.53334 323.400001,54.466654 323.2,57 L320.6,87 L307.3,87 L309.9,57.3 C309.966667,56.766664 310.016666,56.133337 310.05,55.4 C310.083333,54.666663 310.1,54.000003 310.1,53.4 C310.1,51.066655 309.683337,49.5166705 308.85,48.75 C308.016662,47.9833295 306.800008,47.6 305.2,47.6 C303.799993,47.6 302.566672,48.033329 301.5,48.9 C300.433328,49.766671 299.533337,50.8166605 298.8,52.05 C298.066663,53.2833395 297.500002,54.633326 297.1,56.1 C296.699998,57.566674 296.433334,58.899994 296.3,60.1 L294,87 L280.7,87 Z M364.9,85 C364.566665,89.00002 363.916672,92.3499865 362.95,95.05 C361.983328,97.7500135 360.650009,99.933325 358.95,101.6 C357.249992,103.266675 355.133346,104.449996 352.6,105.15 C350.066654,105.850003 347.100017,106.2 343.7,106.2 C342.433327,106.2 341.100007,106.150001 339.7,106.05 C338.299993,105.949999 336.916674,105.816667 335.55,105.65 C334.183327,105.483332 332.88334,105.300001 331.65,105.1 C330.416661,104.899999 329.333338,104.700001 328.4,104.5 L329.4,93.7 C331.600011,94.166669 333.69999,94.566665 335.7,94.9 C337.70001,95.233335 339.866655,95.4 342.2,95.4 C345.53335,95.4 347.86666,94.6833405 349.2,93.25 C350.53334,91.8166595 351.333332,89.400017 351.6,86 L351.9,82.1 C350.299992,83.633341 348.50001,84.8166625 346.5,85.65 C344.49999,86.4833375 342.233346,86.9 339.7,86.9 C334.833309,86.9 331.266678,85.600013 329,83 C326.733322,80.399987 325.6,75.900032 325.6,69.5 C325.6,63.099968 326.133328,57.766688 327.2,53.5 C328.266672,49.233312 329.866656,45.8166795 332,43.25 C334.133344,40.6833205 336.86665,38.8500055 340.2,37.75 C343.53335,36.6499945 347.433311,36.1 351.9,36.1 C355.033349,36.1 357.949987,36.3166645 360.65,36.75 C363.350014,37.1833355 366.133319,37.766663 369,38.5 L364.9,85 Z M344.2,75.5 C345.53334,75.5 346.749994,75.16667 347.85,74.5 C348.950006,73.83333 349.899996,72.9833385 350.7,71.95 C351.500004,70.9166615 352.133331,69.766673 352.6,68.5 C353.066669,67.233327 353.333333,66.000006 353.4,64.8 L354.8,47.8 C353.999996,47.666666 353.183337,47.5833335 352.35,47.55 C351.516663,47.5166665 350.733337,47.5 350,47.5 C348.533326,47.5 347.13334,47.7499975 345.8,48.25 C344.46666,48.7500025 343.300005,49.7499925 342.3,51.25 C341.299995,52.7500075 340.51667,54.866653 339.95,57.6 C339.383331,60.333347 339.1,63.899978 339.1,68.3 C339.1,71.233348 339.499996,73.166662 340.3,74.1 C341.100004,75.033338 342.399991,75.5 344.2,75.5 Z M372.7,102 L363,102 L368.3,87 L369.4,74 L384.4,74 L383.3,87 L372.7,102 Z M411.4,28.5 L412.4,17 L426.7,17 L425.7,28.5 L411.4,28.5 Z M406.8,87 L411.1,37 L424.4,37 L420.1,87 L406.8,87 Z M443.7,48.5 L441.9,70 C441.833333,70.933338 441.783334,71.6166645 441.75,72.05 C441.716666,72.4833355 441.7,72.766666 441.7,72.9 C441.7,75.300012 442.966654,76.5 445.5,76.5 C446.566672,76.5 447.699994,76.400001 448.9,76.2 C450.100006,75.999999 451.066663,75.800001 451.8,75.6 L450.9,86.7 L449.15,87.05 C448.316663,87.2166675 447.400005,87.3499995 446.4,87.45 C445.399995,87.5500005 444.366672,87.6499995 443.3,87.75 C442.233328,87.8500005 441.233338,87.9 440.3,87.9 C437.899988,87.9 435.933341,87.633336 434.4,87.1 C432.866659,86.566664 431.633338,85.7833385 430.7,84.75 C429.766662,83.7166615 429.116668,82.4500075 428.75,80.95 C428.383332,79.4499925 428.2,77.733343 428.2,75.8 C428.2,75.13333 428.216666,74.433337 428.25,73.7 C428.283334,72.966663 428.333333,72.233337 428.4,71.5 L430.4,48.5 L423.9,48.5 L424.9,37 L431.4,37 L432.5,25 L445.8,25 L444.7,37 L454.7,37 L453.7,48.5 L443.7,48.5 Z M551.9,37 L564.1,37 L561.6,66.3 C561.533333,67.233338 561.466667,68.1166625 561.4,68.95 C561.333333,69.7833375 561.3,70.399998 561.3,70.8 C561.3,73.133345 561.699996,74.6499965 562.5,75.35 C563.300004,76.0500035 564.466659,76.4 566,76.4 C567.400007,76.4 568.616661,75.966671 569.65,75.1 C570.683338,74.233329 571.549996,73.1833395 572.25,71.95 C572.950003,70.7166605 573.483331,69.366674 573.85,67.9 C574.216668,66.433326 574.433333,65.100006 574.5,63.9 L576.8,37 L590.1,37 L585.8,87 L575,87 L574.5,82 C572.899992,83.733342 571.016678,85.1499945 568.85,86.25 C566.683323,87.3500055 564.166681,87.9 561.3,87.9 C556.299975,87.9 552.816676,86.633346 550.85,84.1 C548.883323,81.566654 547.9,77.733359 547.9,72.6 C547.9,71.866663 547.916667,71.100004 547.95,70.3 C547.983334,69.499996 548.033333,68.633338 548.1,67.7 L549.806189,48.3 L540.1,48.3 L536.6,88.3 C536.333332,91.63335 535.816671,94.3499895 535.05,96.45 C534.28333,98.5500105 533.200007,100.21666 531.8,101.45 C530.399993,102.683339 528.666677,103.533331 526.6,104 C524.533323,104.466669 522.100014,104.7 519.3,104.7 C517.766659,104.7 516.316673,104.650001 514.95,104.55 C513.583327,104.449999 512.23334,104.333334 510.9,104.2 L511.9,92.9 C512.766671,93.033334 513.833327,93.133333 515.1,93.2 C516.366673,93.266667 517.366663,93.3 518.1,93.3 C519.900009,93.3 521.166663,92.9833365 521.9,92.35 C522.633337,91.7166635 523.066666,90.533342 523.2,88.8 L526.7,48.3 L520.2,48.3 L521.2,37 L527.7,37 L528.1,33 C528.433335,29.599983 528.999996,26.800011 529.8,24.6 C530.600004,22.399989 531.649994,20.666673 532.95,19.4 C534.250007,18.133327 535.866657,17.266669 537.8,16.8 C539.733343,16.333331 542.03332,16.1 544.7,16.1 C546.833344,16.1 548.933323,16.2499985 551,16.55 C553.066677,16.8500015 554.566662,17.099999 555.5,17.3 L554.6,28.6 C553.533328,28.333332 552.316673,28.0833345 550.95,27.85 C549.583327,27.6166655 548.000009,27.5 546.2,27.5 C544.533325,27.5 543.36667,27.9166625 542.7,28.75 C542.03333,29.5833375 541.633334,30.699993 541.5,32.1 L541.1,37 L550.8,37 L549.806189,48.3 L550.9,48.3 L551.9,37 Z M464.6,43.7 L456.1,43.7 L454.5,28 L455.5,17 L470,17 L469,28 L464.6,43.7 Z M499.8,69.5 C499.8,73.166685 499.266672,76.1833215 498.2,78.55 C497.133328,80.9166785 495.65001,82.799993 493.75,84.2 C491.849991,85.600007 489.56668,86.566664 486.9,87.1 C484.23332,87.633336 481.333349,87.9 478.2,87.9 C476.933327,87.9 475.63334,87.8500005 474.3,87.75 C472.96666,87.6499995 471.700006,87.5166675 470.5,87.35 C469.299994,87.1833325 468.183338,87.0166675 467.15,86.85 C466.116661,86.6833325 465.26667,86.500001 464.6,86.3 L465.6,75 C466.93334,75.333335 468.64999,75.699998 470.75,76.1 C472.850011,76.500002 475.066655,76.7 477.4,76.7 C480.000013,76.7 482.083326,76.3500035 483.65,75.65 C485.216675,74.9499965 486,73.533344 486,71.4 C486,70.133327 485.583338,69.200003 484.75,68.6 C483.916663,67.999997 482.366678,67.466669 480.1,67 C475.366643,66.066662 472.05001,64.4166785 470.15,62.05 C468.24999,59.6833215 467.3,56.900016 467.3,53.7 C467.3,47.233301 469.116648,42.6833465 472.75,40.05 C476.383352,37.4166535 481.833297,36.1 489.1,36.1 C490.166672,36.1 491.299994,36.1499995 492.5,36.25 C493.700006,36.3500005 494.849994,36.4833325 495.95,36.65 C497.050005,36.8166675 498.049996,36.9833325 498.95,37.15 C499.850005,37.3166675 500.533331,37.466666 501,37.6 L500,49 C498.466659,48.533331 496.800009,48.133335 495,47.8 C493.199991,47.466665 490.933347,47.3 488.2,47.3 C485.599987,47.3 483.750006,47.666663 482.65,48.4 C481.549995,49.133337 481,50.333325 481,52 C481,53.133339 481.516662,53.9166645 482.55,54.35 C483.583338,54.7833355 485.09999,55.233331 487.1,55.7 C491.966691,56.766672 495.299991,58.4833215 497.1,60.85 C498.900009,63.2166785 499.8,66.099983 499.8,69.5 Z M590.8,87 L595.1,37 L605.9,37 L606.4,42.3 C608.066675,40.433324 610.016655,38.933339 612.25,37.8 C614.483344,36.666661 617.066652,36.1 620,36.1 C625.066692,36.1 628.59999,37.3166545 630.6,39.75 C632.60001,42.1833455 633.6,45.999974 633.6,51.2 C633.6,52.53334 633.500001,54.466654 633.3,57 L630.7,87 L617.4,87 L620,57.3 C620.066667,56.766664 620.116666,56.133337 620.15,55.4 C620.183333,54.666663 620.2,54.000003 620.2,53.4 C620.2,51.066655 619.783337,49.5166705 618.95,48.75 C618.116662,47.9833295 616.900008,47.6 615.3,47.6 C613.899993,47.6 612.666672,48.033329 611.6,48.9 C610.533328,49.766671 609.633337,50.8166605 608.9,52.05 C608.166663,53.2833395 607.600002,54.633326 607.2,56.1 C606.799998,57.566674 606.533334,58.899994 606.4,60.1 L604.1,87 L590.8,87 Z" id="path-3"></path>
    </defs>
    <g id="Page-1" stroke="none" stroke-width="1" fill="none" fill-rule="evenodd">
        <g id="Desktop-HD" transform="translate(0.000000, -405.000000)">
            <g id="TrySodaItsFun" transform="translate(-50.000000, 355.000000)">
                <g id="card">
                    <use fill="black" fill-opacity="1" filter="url(#filter-2)" xlink:href="#path-1"></use>
                    <rect stroke-opacity="0.25" stroke="#000000" stroke-width="1" stroke-linejoin="square" fill="#212121" fill-rule="evenodd" x="50.5" y="50.5" width="719" height="149" rx="25"></rect>
                </g>
                <g id="oops" stroke-width="1" fill-rule="evenodd" transform="translate(85.000000, 73.000000)">
                    <path d="M513.5,98.5 L631.5,98.5" id="fun-underline" stroke="#F92A72" stroke-width="3" stroke-linecap="square"></path>
                    <path d="M464.5,98.5 L492.5,98.5" id="s-underline" stroke="#F92A72" stroke-width="3" stroke-linecap="square"></path>
                    <text id="apostrophe" fill="#FFF78A" font-family="Share-BoldItalic, Share" font-size="100" font-style="italic" font-weight="bold" letter-spacing="-8">
                        <tspan x="0" y="88">'</tspan>
                    </text>
                    <mask id="mask-4" fill="white">
                        <use xlink:href="#path-3"></use>
                    </mask>
                    <use id="try-coding,-it's-fun" fill="#FFF78A" xlink:href="#path-3"></use>
                    <polygon id="accent" fill-opacity="0.9" fill="#FFFFFF" mask="url(#mask-4)" points="468.5 39.5 462.5 58 460.5 96 485.5 109.5 646.5 109.5 649.5 17 524.5 7.5"></polygon>
                </g>
            </g>
        </g>
    </g>
</svg>